<svg width="198" height="58" viewBox="0 0 198 58" fill="none" xmlns="http://www.w3.org/2000/svg">
<g clip-path="url(#clip0)">
<path d="M137.993 49.7681V1.10429H130.103C129.851 1.10429 129.623 1.30507 129.623 1.58114V56.444C129.623 56.6949 129.825 56.9208 130.103 56.9208H137.993V49.7681Z" fill="#FFDD35"/>
<path d="M148.892 3.91518C147.147 2.03288 144.214 1.07918 140.041 1.07918H139.814V7.72998H139.966C141.078 7.72998 141.862 7.98095 142.368 8.4829C142.874 8.98485 143.126 10.0138 143.126 11.5699V46.2795C143.126 47.8858 142.874 48.9649 142.368 49.4418C141.862 49.9437 141.103 50.1947 140.041 50.1947H139.814V56.8706H141.786C144.568 56.8706 146.894 55.942 148.74 54.0597C150.586 52.1774 151.497 49.8183 151.497 47.0073V13.3267C151.497 8.93465 150.637 5.79748 148.892 3.91518Z" fill="#FFDD35"/>
<path d="M173.016 29.5647V23.19C173.016 22.939 172.814 22.7131 172.561 22.7131H164.975V29.9913H172.561C172.814 30.0164 173.016 29.8157 173.016 29.5647Z" fill="#FFDD35"/>
<path d="M164.975 8.38251H172.94C173.193 8.38251 173.421 8.18173 173.421 7.90566V1.55603C173.421 1.30505 173.218 1.07918 172.94 1.07918H164.975V8.38251Z" fill="#FFDD35"/>
<path d="M173.092 49.6175H164.949V56.9208H173.092C173.345 56.9208 173.572 56.72 173.572 56.444V50.0943C173.572 49.8183 173.37 49.6175 173.092 49.6175Z" fill="#FFDD35"/>
<path d="M163.154 49.1406V1.10429H155.264C155.011 1.10429 154.784 1.30507 154.784 1.58114V56.444C154.784 56.6949 154.986 56.9208 155.264 56.9208H163.154V49.1406Z" fill="#FFDD35"/>
<path d="M36.3885 22.4872H33.5563V1.55603C33.5563 1.30505 33.354 1.07918 33.0759 1.07918H25.6414C25.3885 1.07918 25.1609 1.27996 25.1609 1.55603V56.4189C25.1609 56.6698 25.3632 56.8957 25.6414 56.8957H33.0759C33.3287 56.8957 33.5563 56.6949 33.5563 56.4189V29.7906H36.3885V22.4872Z" fill="#FFDD35"/>
<path d="M46.0989 1.10429H38.6644C38.4115 1.10429 38.1839 1.30507 38.1839 1.55605V56.4189C38.1839 56.6699 38.3862 56.8957 38.6644 56.8957H46.0989C46.3517 56.8957 46.5793 56.695 46.5793 56.4189V1.55605C46.554 1.30507 46.3517 1.10429 46.0989 1.10429Z" fill="#FFDD35"/>
<path d="M85.5977 23.7421V1.10429H77.708C77.4552 1.10429 77.2276 1.30507 77.2276 1.58114V56.444C77.2276 56.6949 77.4299 56.9208 77.708 56.9208H85.1425C85.3954 56.9208 85.623 56.72 85.623 56.444L85.5977 23.7421Z" fill="#FFDD35"/>
<path d="M100.037 56.3687C99.5057 53.1813 99.2023 49.0151 99.1011 43.82L98.9494 36.3661C98.8988 34.3834 98.6713 32.8022 98.2414 31.5976C97.8115 30.3929 96.977 29.3388 95.8644 28.6612C95.3586 28.3349 94.8023 28.0588 94.2207 27.8581C95.308 27.5318 96.3195 26.9546 97.1793 26.1765C98.469 24.9468 99.1264 22.9892 99.1011 20.2536V10.4154C99.1011 4.19125 95.5609 1.07918 88.5057 1.07918H87.3931V7.72998H87.5448C89.6437 7.72998 90.7057 8.58329 90.7057 10.315V20.7304C90.7057 21.8849 90.4276 22.7382 89.8713 23.3154C89.4161 23.7923 88.5816 24.0684 87.3931 24.1437V31.1207C88.4552 31.2713 89.2391 31.5725 89.7195 32.0995C90.377 32.8022 90.7057 33.9065 90.7057 35.4375V43.8953C90.7057 49.0151 91.0345 53.2315 91.6667 56.5192C91.7172 56.7451 91.8942 56.8957 92.1218 56.8957H99.531C99.7839 56.8957 100.011 56.6949 100.011 56.4189C100.037 56.4189 100.037 56.3938 100.037 56.3687Z" fill="#FFDD35"/>
<path d="M10.0644 6.7512C10.3678 6.6759 10.6713 6.65081 10.9747 6.65081C11.8598 6.65081 12.5172 6.87668 12.9218 7.35353C13.3264 7.83038 13.5034 8.65859 13.5034 9.86327V20.6802C13.5034 20.9312 13.7057 21.1571 13.9839 21.1571H21.4184C21.6713 21.1571 21.8989 20.9563 21.8989 20.6802V9.16054C21.8989 6.34964 20.9379 4.11597 19.0161 2.45955C17.0943 0.803121 14.3632 5.47099e-06 10.8989 5.47099e-06C9.28046 -0.0250919 7.68736 0.200784 6.14483 0.677634L10.0644 6.7512Z" fill="#FFDD35"/>
<path d="M5.76552 29.0126C6.72644 30.2423 7.81379 31.6227 9.02759 33.1787C11.177 35.8892 12.5425 37.7464 13.0483 38.7503C13.5793 39.7542 13.8322 40.6075 13.8322 41.3354V48.1618C13.8575 48.8144 13.7563 49.4669 13.554 50.0692L17.777 56.6197C18.3333 56.3185 18.8391 55.9671 19.3195 55.5656C21.2414 53.9091 22.2023 51.7006 22.2023 48.9399V40.4068C22.2023 38.675 21.646 36.8429 20.5333 34.8853C19.3195 32.8274 17.954 30.8698 16.4368 29.0377C15.5011 27.8079 14.3885 26.4275 13.1747 24.8715C11.0253 22.161 9.65977 20.3038 9.15402 19.2999C8.62299 18.296 8.37011 17.4427 8.37011 16.7148V9.86327C8.34483 9.21074 8.44598 8.55821 8.67356 7.93077L4.45057 1.40546C3.89425 1.70662 3.36322 2.05799 2.88276 2.48464C0.960919 4.11597 0 6.32454 0 9.08525V17.6184C0 19.3501 0.556322 21.1822 1.66897 23.1398C2.85747 25.1978 4.24828 27.1554 5.76552 29.0126Z" fill="#FFDD35"/>
<path d="M12.1885 51.2488C11.8851 51.3241 11.5816 51.3492 11.2529 51.3492C10.3678 51.3492 9.71035 51.1233 9.30575 50.6465C8.90115 50.1696 8.72414 49.3414 8.72414 48.1367V36.2657C8.72414 36.0147 8.52184 35.7888 8.24368 35.7888H0.834487C0.581613 35.7888 0.354027 35.9896 0.354027 36.2657V48.8395C0.354027 51.6504 1.31495 53.884 3.23679 55.5405C5.15862 57.1969 7.86437 58 11.3287 58C12.9471 58.0251 14.5655 57.7992 16.108 57.3224L12.1885 51.2488Z" fill="#FFDD35"/>
<path d="M189.276 9.86326V20.6802C189.276 20.9312 189.478 21.1571 189.756 21.1571H197.191C197.444 21.1571 197.671 20.9563 197.671 20.6802V9.16053C197.671 6.34963 196.71 4.11596 194.789 2.45954C194.409 2.13327 194.005 1.8321 193.575 1.58113L189.149 8.40761C189.251 8.90956 189.276 9.38641 189.276 9.86326Z" fill="#FFDD35"/>
<path d="M192.234 29.0125C191.299 27.7828 190.186 26.4024 188.972 24.8464C186.823 22.1359 185.457 20.2787 184.952 19.2748C184.421 18.2709 184.168 17.4176 184.168 16.6897V9.86326C184.168 8.70878 184.37 7.90567 184.749 7.40372C185.154 6.90177 185.811 6.6508 186.772 6.6508C187.202 6.6508 187.607 6.70099 188.011 6.85158L191.906 0.803114C190.211 0.250972 188.441 -0.0250986 186.671 -1.24994e-06C183.257 -1.24994e-06 180.577 0.828212 178.655 2.45954C176.733 4.09087 175.772 6.32453 175.772 9.08524V17.6183C175.772 19.3501 176.329 21.1822 177.441 23.1398C178.655 25.1977 180.021 27.1553 181.538 28.9875C182.499 30.2172 183.586 31.5976 184.8 33.1536C186.949 35.8641 188.29 37.7213 188.821 38.7252C189.352 39.7291 189.605 40.5824 189.605 41.3103V48.1367C189.605 49.2912 189.402 50.1194 189.023 50.5963C188.618 51.0982 187.961 51.3492 187 51.3492C186.747 51.3492 186.52 51.3241 186.267 51.2739L182.347 57.3475C183.89 57.7992 185.483 58.0251 187.076 58C190.49 58 193.17 57.1718 195.092 55.5405C197.014 53.884 197.975 51.7006 198 48.9148V40.3817C198 38.6499 197.444 36.8178 196.331 34.8602C195.143 32.8022 193.752 30.8447 192.234 29.0125Z" fill="#FFDD35"/>
<path d="M184.497 48.1367V36.2657C184.497 36.0147 184.294 35.7888 184.016 35.7888H176.582C176.329 35.7888 176.101 35.9896 176.101 36.2657V48.8395C176.101 51.6504 177.062 53.884 178.984 55.5405C179.49 55.9671 180.046 56.3436 180.653 56.6698L184.8 50.2198C184.572 49.5422 184.446 48.8395 184.497 48.1367Z" fill="#FFDD35"/>
<path d="M115.462 34.4838H111.72L113.616 13.0757H106.561L101.605 56.3687C101.579 56.6196 101.756 56.8706 102.009 56.8957C102.034 56.8957 102.034 56.8957 102.06 56.8957H108.685C108.913 56.8957 109.115 56.72 109.166 56.4941L110.936 41.7871H116.069L115.462 34.4838Z" fill="#FFDD35"/>
<path d="M127.676 56.3938L121.379 1.50583C121.354 1.27996 121.152 1.07918 120.899 1.07918H108.331C108.078 1.07918 107.901 1.25486 107.851 1.50583L106.738 11.2938H115.285H115.336L117.763 42.1887C117.763 42.1887 117.763 42.1886 117.763 42.2137L119.255 56.4941C119.28 56.7451 119.483 56.9208 119.736 56.9208H127.195C127.448 56.9208 127.676 56.72 127.676 56.4439C127.676 56.4189 127.676 56.4189 127.676 56.3938Z" fill="#FFDD35"/>
<path d="M63.092 34.4838H59.3494L61.246 13.0757H54.1908L49.2345 56.3687C49.2092 56.6196 49.3862 56.8706 49.6391 56.8957C49.6644 56.8957 49.6644 56.8957 49.6897 56.8957H56.3149C56.5425 56.8957 56.7448 56.72 56.7954 56.4941L58.5655 41.7871H63.7241L63.092 34.4838Z" fill="#FFDD35"/>
<path d="M75.3057 56.3938L69.0345 1.50583C69.0092 1.27996 68.8069 1.07918 68.554 1.07918H55.9609C55.7081 1.07918 55.531 1.25486 55.4805 1.50583L54.3678 11.2938H62.9149H62.9655L65.3931 42.1887C65.3931 42.1887 65.3931 42.1886 65.3931 42.2137L66.8851 56.4941C66.9103 56.7451 67.1126 56.9208 67.3655 56.9208H74.8506C75.1034 56.9208 75.331 56.6949 75.3057 56.4439C75.3057 56.4189 75.3057 56.3938 75.3057 56.3938Z" fill="#FFDD35"/>
</g>
<defs>
<clipPath id="clip0">
<rect width="198" height="58" fill="white"/>
</clipPath>
</defs>
</svg>
